<svg width="690" height="298" viewBox="0 0 690 298" fill="none" xmlns="http://www.w3.org/2000/svg">
<path d="M550.047 73.18C550.127 73.3533 550.127 73.6 550.047 73.92C549.981 74.2667 549.907 74.62 549.827 74.98C549.761 75.34 549.694 75.6933 549.627 76.04C549.747 76.04 549.894 76.0467 550.067 76.06C550.241 76.06 550.414 76.08 550.587 76.12C550.774 76.1467 550.941 76.1867 551.087 76.24C551.247 76.2933 551.361 76.36 551.427 76.44C551.481 76.52 551.521 76.6333 551.547 76.78C551.587 76.9267 551.594 77.08 551.567 77.24C551.541 77.3867 551.481 77.5267 551.387 77.66C551.294 77.78 551.154 77.8533 550.967 77.88C550.914 77.9067 550.727 77.9267 550.407 77.94C550.101 77.9533 549.694 77.96 549.187 77.96L548.587 81.38C548.747 81.38 548.941 81.3733 549.167 81.36C549.407 81.3467 549.681 81.3533 549.987 81.38C550.267 81.3933 550.467 81.4867 550.587 81.66C550.721 81.8333 550.781 82.0533 550.767 82.32C550.767 82.6 550.667 82.8067 550.467 82.94C550.267 83.0733 550.027 83.1667 549.747 83.22C549.467 83.26 549.167 83.28 548.847 83.28C548.541 83.28 548.274 83.28 548.047 83.28C548.021 83.28 547.987 83.38 547.947 83.58C547.907 83.7667 547.861 83.98 547.807 84.22C547.767 84.4467 547.727 84.6667 547.687 84.88C547.647 85.0933 547.621 85.22 547.607 85.26C547.554 85.4867 547.507 85.7133 547.467 85.94C547.427 86.1533 547.361 86.3533 547.267 86.54C547.174 86.7267 547.047 86.8867 546.887 87.02C546.741 87.1533 546.534 87.24 546.267 87.28C546.054 87.3067 545.854 87.2867 545.667 87.22C545.494 87.1533 545.341 87.0533 545.207 86.92C545.074 86.7867 544.974 86.6267 544.907 86.44C544.854 86.2533 544.841 86.06 544.867 85.86C544.894 85.66 544.927 85.4667 544.967 85.28C545.021 85.08 545.074 84.8867 545.127 84.7C545.181 84.4733 545.234 84.24 545.287 84C545.341 83.7467 545.387 83.5067 545.427 83.28H543.047C542.967 83.6133 542.887 83.9467 542.807 84.28C542.741 84.6133 542.667 84.9533 542.587 85.3C542.521 85.5933 542.427 85.8933 542.307 86.2C542.201 86.4933 542.014 86.7267 541.747 86.9C541.507 87.0733 541.234 87.18 540.927 87.22C540.634 87.26 540.367 87.16 540.127 86.92C539.967 86.76 539.874 86.5733 539.847 86.36C539.821 86.1467 539.827 85.9267 539.867 85.7C539.907 85.4733 539.961 85.2533 540.027 85.04C540.107 84.8133 540.167 84.6067 540.207 84.42C540.247 84.2333 540.287 84.0467 540.327 83.86C540.381 83.66 540.427 83.4667 540.467 83.28C540.294 83.28 540.087 83.28 539.847 83.28C539.621 83.28 539.401 83.2533 539.187 83.2C538.974 83.1467 538.794 83.06 538.647 82.94C538.501 82.8067 538.427 82.62 538.427 82.38C538.427 82.1267 538.481 81.9 538.587 81.7C538.707 81.4867 538.914 81.3733 539.207 81.36C539.474 81.36 539.761 81.3667 540.067 81.38C540.374 81.38 540.661 81.38 540.927 81.38L541.727 77.96H540.607C540.461 77.96 540.307 77.9533 540.147 77.94C540.001 77.9133 539.861 77.8733 539.727 77.82C539.607 77.7533 539.507 77.6667 539.427 77.56C539.361 77.44 539.327 77.2933 539.327 77.12C539.327 76.9067 539.374 76.7333 539.467 76.6C539.574 76.4533 539.707 76.34 539.867 76.26C540.027 76.18 540.201 76.1267 540.387 76.1C540.574 76.06 540.754 76.04 540.927 76.04H542.187C542.241 75.7867 542.294 75.5 542.347 75.18C542.414 74.86 542.494 74.5467 542.587 74.24C542.694 73.92 542.814 73.62 542.947 73.34C543.094 73.06 543.281 72.8267 543.507 72.64C543.761 72.4267 544.007 72.3067 544.247 72.28C544.487 72.24 544.694 72.2733 544.867 72.38C545.041 72.4867 545.161 72.66 545.227 72.9C545.307 73.14 545.307 73.4267 545.227 73.76C545.134 74.1333 545.041 74.5133 544.947 74.9C544.867 75.2867 544.787 75.6667 544.707 76.04H547.047C547.047 76.04 547.061 75.9667 547.087 75.82C547.127 75.66 547.167 75.4867 547.207 75.3C547.247 75.1133 547.287 74.94 547.327 74.78C547.367 74.62 547.387 74.5267 547.387 74.5C547.467 74.1933 547.594 73.8467 547.767 73.46C547.954 73.06 548.187 72.7667 548.467 72.58C548.601 72.5 548.747 72.4533 548.907 72.44C549.067 72.4267 549.221 72.4467 549.367 72.5C549.527 72.54 549.667 72.62 549.787 72.74C549.907 72.86 549.994 73.0067 550.047 73.18ZM543.467 81.38H545.887L546.647 77.96H544.247L543.467 81.38ZM560.585 72.04C560.705 72.04 560.858 72.0467 561.045 72.06C561.232 72.06 561.378 72.0733 561.485 72.1C561.672 72.1667 561.852 72.2467 562.025 72.34C562.212 72.4333 562.365 72.56 562.485 72.72C562.618 72.88 562.712 73.0933 562.765 73.36C562.832 73.6133 562.865 73.8467 562.865 74.06C562.865 74.6467 562.872 75.2267 562.885 75.8C562.912 76.36 562.912 76.9333 562.885 77.52C562.872 77.6933 562.865 77.8867 562.865 78.1C562.878 78.3 562.878 78.5067 562.865 78.72C562.852 78.9333 562.825 79.14 562.785 79.34C562.758 79.5267 562.698 79.7 562.605 79.86C562.498 80.0467 562.358 80.1933 562.185 80.3C562.012 80.4067 561.825 80.4733 561.625 80.5C561.438 80.5267 561.252 80.5067 561.065 80.44C560.892 80.3733 560.752 80.2467 560.645 80.06C560.472 79.7933 560.365 79.4933 560.325 79.16C560.298 78.8133 560.285 78.4667 560.285 78.12V76.4C560.285 75.9333 560.265 75.5 560.225 75.1C560.212 74.94 560.172 74.8267 560.105 74.76C560.038 74.68 559.958 74.6267 559.865 74.6C559.772 74.5733 559.665 74.56 559.545 74.56C559.425 74.56 559.305 74.56 559.185 74.56C559.052 74.56 558.898 74.56 558.725 74.56C558.552 74.56 558.372 74.56 558.185 74.56C558.012 74.56 557.845 74.56 557.685 74.56C557.525 74.56 557.385 74.56 557.265 74.56C556.825 74.56 556.405 74.5533 556.005 74.54C555.618 74.5267 555.185 74.4867 554.705 74.42C554.518 74.4067 554.378 74.34 554.285 74.22C554.205 74.1 554.145 73.96 554.105 73.8C554.078 73.64 554.065 73.4733 554.065 73.3C554.078 73.1267 554.098 72.98 554.125 72.86C554.152 72.7133 554.198 72.5933 554.265 72.5C554.332 72.4067 554.418 72.32 554.525 72.24C554.672 72.1333 554.832 72.08 555.005 72.08C555.178 72.08 555.345 72.0667 555.505 72.04C555.572 72.04 555.732 72.04 555.985 72.04C556.238 72.0267 556.538 72.02 556.885 72.02C557.232 72.02 557.605 72.02 558.005 72.02C558.418 72.02 558.798 72.02 559.145 72.02C559.505 72.02 559.812 72.0267 560.065 72.04C560.332 72.04 560.505 72.04 560.585 72.04ZM565.785 77.24C565.398 77.2133 565.052 77.1933 564.745 77.18C564.438 77.1533 564.198 77.0067 564.025 76.74C563.945 76.6067 563.905 76.44 563.905 76.24C563.905 76.04 563.918 75.8667 563.945 75.72C563.985 75.5733 564.058 75.4533 564.165 75.36C564.272 75.2533 564.458 75.1667 564.725 75.1C564.778 75.0867 564.878 75.08 565.025 75.08C565.172 75.0667 565.325 75.0533 565.485 75.04C565.658 75.0267 565.818 75.02 565.965 75.02C566.112 75.0067 566.212 75 566.265 75V73.28C566.252 73.1333 566.245 72.9867 566.245 72.84C566.258 72.6933 566.285 72.5467 566.325 72.4C566.352 72.2933 566.378 72.1933 566.405 72.1C566.432 72.0067 566.492 71.9067 566.585 71.8C566.692 71.6667 566.838 71.5733 567.025 71.52C567.225 71.4667 567.438 71.4533 567.665 71.48C568.092 71.5467 568.365 71.7133 568.485 71.98C568.565 72.14 568.612 72.34 568.625 72.58C568.652 72.8067 568.665 72.9467 568.665 73V79.52H568.645C568.645 79.5333 568.638 79.58 568.625 79.66C568.612 79.74 568.585 79.84 568.545 79.96C568.505 80.0667 568.445 80.18 568.365 80.3C568.285 80.42 568.178 80.52 568.045 80.6C567.858 80.7067 567.672 80.76 567.485 80.76C567.258 80.76 567.038 80.6867 566.825 80.54C566.665 80.4333 566.552 80.3 566.485 80.14C566.405 79.9933 566.352 79.8467 566.325 79.7C566.298 79.5533 566.278 79.4067 566.265 79.26V77.24H565.785ZM556.065 87.36C556.052 87.36 556.032 87.3467 556.005 87.32C555.872 87.2133 555.778 87.06 555.725 86.86C555.685 86.6467 555.665 86.4667 555.665 86.32C555.652 86.08 555.632 85.84 555.605 85.6C555.592 85.36 555.585 85.1267 555.585 84.9C555.585 84.5533 555.585 84.2133 555.585 83.88C555.585 83.5467 555.618 83.2133 555.685 82.88C555.725 82.6667 555.792 82.5 555.885 82.38C555.978 82.2467 556.125 82.14 556.325 82.06C556.698 81.9133 557.072 81.84 557.445 81.84H566.865C567.118 81.8533 567.378 81.8733 567.645 81.9C567.912 81.9267 568.165 81.9933 568.405 82.1C568.672 82.2067 568.845 82.3867 568.925 82.64C569.018 82.88 569.078 83.1333 569.105 83.4C569.118 83.6267 569.125 83.8933 569.125 84.2C569.138 84.4933 569.138 84.7933 569.125 85.1C569.112 85.4067 569.092 85.7133 569.065 86.02C569.038 86.3133 568.992 86.58 568.925 86.82C568.885 86.9667 568.838 87.0933 568.785 87.2C568.732 87.32 568.625 87.4067 568.465 87.46C568.318 87.5133 568.165 87.5467 568.005 87.56C567.858 87.5733 567.712 87.58 567.565 87.58L557.145 87.54C556.972 87.5267 556.785 87.52 556.585 87.52C556.385 87.52 556.212 87.4667 556.065 87.36ZM557.965 85.02C557.965 85.0867 557.965 85.1533 557.965 85.22C557.978 85.2733 558.005 85.3133 558.045 85.34C558.072 85.3667 558.112 85.3867 558.165 85.4C558.232 85.4 558.298 85.4 558.365 85.4C558.432 85.4 558.512 85.3933 558.605 85.38H564.865C565.052 85.3933 565.232 85.4067 565.405 85.42C565.552 85.4333 565.705 85.44 565.865 85.44C566.025 85.44 566.172 85.4267 566.305 85.4C566.438 85.3867 566.518 85.3533 566.545 85.3C566.572 85.2333 566.592 85.14 566.605 85.02C566.618 84.9133 566.625 84.7933 566.625 84.66C566.625 84.5133 566.585 84.3867 566.505 84.28C566.412 84.1733 566.278 84.12 566.105 84.12C565.945 84.1067 565.798 84.1067 565.665 84.12H560.105C559.812 84.0933 559.525 84.0867 559.245 84.1C558.965 84.1 558.678 84.1067 558.385 84.12C558.278 84.12 558.192 84.1267 558.125 84.14C558.072 84.14 558.032 84.2 558.005 84.32C557.978 84.4133 557.965 84.5067 557.965 84.6C557.965 84.68 557.965 84.76 557.965 84.84C557.978 84.8667 557.978 84.8933 557.965 84.92C557.965 84.9467 557.965 84.98 557.965 85.02ZM585.019 79.86C585.019 79.8733 585.012 79.92 584.999 80C584.999 80.08 584.979 80.18 584.939 80.3C584.899 80.4067 584.839 80.52 584.759 80.64C584.692 80.76 584.592 80.86 584.459 80.94C584.312 81.0333 584.159 81.08 583.999 81.08C583.732 81.08 583.512 81.0133 583.339 80.88C583.192 80.7733 583.079 80.64 582.999 80.48C582.799 80.1067 582.706 79.7 582.719 79.26C582.732 78.8067 582.746 78.3733 582.759 77.96V77.68C582.572 77.6933 582.352 77.7 582.099 77.7C581.859 77.7 581.666 77.7067 581.519 77.72H581.459V79.54C581.446 79.6867 581.426 79.84 581.399 80C581.372 80.1467 581.319 80.2933 581.239 80.44C581.146 80.6133 581.032 80.74 580.899 80.82C580.806 80.8867 580.726 80.94 580.659 80.98C580.592 81.02 580.499 81.04 580.379 81.04C580.192 81.04 580.006 80.9867 579.819 80.88C579.686 80.8 579.579 80.7 579.499 80.58C579.419 80.46 579.359 80.3467 579.319 80.24C579.279 80.1333 579.252 80.04 579.239 79.96C579.226 79.8667 579.219 79.82 579.219 79.82V73.22C579.206 73.1533 579.206 73.0067 579.219 72.78C579.246 72.54 579.299 72.34 579.379 72.18C579.512 71.9 579.786 71.74 580.199 71.7C580.426 71.6733 580.612 71.6867 580.759 71.74C580.906 71.7933 581.032 71.88 581.139 72C581.232 72.1067 581.292 72.2133 581.319 72.32C581.346 72.4133 581.372 72.5133 581.399 72.62C581.439 72.7533 581.459 72.8933 581.459 73.04C581.472 73.1867 581.479 73.3333 581.479 73.48C581.466 73.5333 581.459 73.6133 581.459 73.72V75.48C581.486 75.48 581.546 75.4867 581.639 75.5C581.746 75.5 581.859 75.5067 581.979 75.52C582.112 75.52 582.246 75.5267 582.379 75.54C582.526 75.54 582.659 75.54 582.779 75.54V73.66V73.42C582.766 73.2733 582.759 73.1333 582.759 73C582.772 72.8533 582.799 72.7067 582.839 72.56C582.892 72.36 583.012 72.16 583.199 71.96C583.412 71.6933 583.726 71.5867 584.139 71.64C584.486 71.6933 584.726 71.8667 584.859 72.16C584.939 72.32 584.986 72.5133 584.999 72.74C585.026 72.9667 585.032 73.1067 585.019 73.16V79.86ZM583.079 82.4C583.626 82.4 584.066 82.4867 584.399 82.66C584.732 82.82 584.899 83.0533 584.899 83.36V86.04C584.926 86.3467 584.926 86.64 584.899 86.92C584.872 87.2 584.759 87.4267 584.559 87.6C584.372 87.7733 584.126 87.86 583.819 87.86C583.752 87.86 583.632 87.8533 583.459 87.84C583.286 87.84 583.166 87.8267 583.099 87.8C582.926 87.7467 582.786 87.6667 582.679 87.56C582.586 87.4533 582.512 87.3333 582.459 87.2C582.406 87.0667 582.366 86.9267 582.339 86.78C582.326 86.62 582.312 86.4667 582.299 86.32C582.299 86.2667 582.292 86.1667 582.279 86.02C582.279 85.86 582.279 85.7 582.279 85.54C582.279 85.3667 582.272 85.2067 582.259 85.06C582.259 84.9133 582.252 84.8133 582.239 84.76C582.199 84.7467 582.086 84.7333 581.899 84.72C581.726 84.7067 581.392 84.7 580.899 84.7C580.472 84.7 580.206 84.7067 580.099 84.72C580.006 84.7333 579.952 84.74 579.939 84.74H572.719L572.699 84.72C572.699 84.72 572.652 84.7067 572.559 84.68C572.479 84.6533 572.386 84.6133 572.279 84.56C572.172 84.5067 572.066 84.4333 571.959 84.34C571.866 84.2467 571.812 84.1267 571.799 83.98C571.732 83.4733 571.819 83.0733 572.059 82.78C572.219 82.5933 572.392 82.4867 572.579 82.46C572.766 82.42 572.866 82.4 572.879 82.4H583.079ZM570.619 80.38C570.432 80.2867 570.312 80.1333 570.259 79.92C570.152 79.6533 570.132 79.3933 570.199 79.14C570.266 78.8733 570.372 78.62 570.519 78.38C570.666 78.14 570.826 77.9133 570.999 77.7C571.186 77.4867 571.346 77.2867 571.479 77.1C571.666 76.82 571.852 76.5667 572.039 76.34C572.239 76.1133 572.439 75.8533 572.639 75.56C572.772 75.3333 572.919 75.1 573.079 74.86C573.252 74.6067 573.352 74.3333 573.379 74.04C573.379 73.8133 573.386 73.5733 573.399 73.32C573.412 73.0533 573.446 72.8133 573.499 72.6C573.566 72.3733 573.666 72.1867 573.799 72.04C573.932 71.8933 574.126 71.82 574.379 71.82C574.472 71.82 574.586 71.8267 574.719 71.84C574.866 71.84 575.006 71.86 575.139 71.9C575.272 71.9267 575.392 71.9733 575.499 72.04C575.606 72.0933 575.679 72.1733 575.719 72.28C575.772 72.4 575.799 72.5467 575.799 72.72C575.812 72.8933 575.819 73.0733 575.819 73.26C575.819 73.4333 575.819 73.6133 575.819 73.8C575.819 73.9733 575.839 74.12 575.879 74.24C575.946 74.4667 576.006 74.66 576.059 74.82C576.126 74.98 576.212 75.1533 576.319 75.34C576.546 75.74 576.746 76.0867 576.919 76.38C577.106 76.66 577.319 76.9867 577.559 77.36C577.746 77.64 577.912 77.92 578.059 78.2C578.219 78.4667 578.332 78.7733 578.399 79.12C578.452 79.4 578.426 79.64 578.319 79.84C578.212 80.04 578.059 80.1867 577.859 80.28C577.672 80.36 577.466 80.38 577.239 80.34C577.026 80.3 576.839 80.1867 576.679 80L574.499 77.06L572.399 79.68C572.266 79.84 572.112 79.9933 571.939 80.14C571.779 80.2733 571.606 80.3667 571.419 80.42C571.272 80.4467 571.126 80.4667 570.979 80.48C570.846 80.48 570.726 80.4467 570.619 80.38Z" fill="black" fill-opacity="0.3"/>
<path d="M47.5071 176.08C49.8271 176.08 51.9071 176.48 53.7471 177.28C55.6671 178.08 56.7871 179.76 57.1071 182.32C57.2671 183.6 57.0671 184.76 56.5071 185.8C56.0271 186.84 55.3471 187.72 54.4671 188.44C53.5871 189.16 52.5471 189.72 51.3471 190.12C50.2271 190.52 49.1471 190.76 48.1071 190.84C47.2271 190.84 45.6671 190.84 43.4271 190.84C41.2671 190.84 38.8271 190.84 36.1071 190.84C33.4671 190.84 30.7471 190.84 27.9471 190.84C25.1471 190.84 22.7871 190.84 20.8671 190.84H19.9071C18.0671 190.76 16.1471 190.68 14.1471 190.6C12.2271 190.52 10.3471 190.2 8.50715 189.64C7.22715 189.24 6.02715 188.52 4.90715 187.48C3.78715 186.44 2.90715 185.24 2.26715 183.88C1.86715 183 1.58715 181.96 1.42715 180.76C1.26715 179.48 1.14715 178.28 1.06715 177.16C0.987147 175.96 0.947147 174.92 0.947147 174.04C1.02715 173.16 1.06715 172.68 1.06715 172.6V121.6C1.06715 121.36 1.02715 120.72 0.947147 119.68C0.867148 118.64 0.827148 117.44 0.827148 116.08C0.907147 114.72 1.02715 113.32 1.18715 111.88C1.42715 110.44 1.86715 109.24 2.50715 108.28C2.98715 107.48 3.82715 106.84 5.02715 106.36C6.30715 105.88 7.58715 105.52 8.86715 105.28C10.2271 105.04 11.4271 104.92 12.4671 104.92C13.5871 104.84 14.2671 104.8 14.5071 104.8H42.5871C42.6671 104.8 43.2671 104.8 44.3871 104.8C45.5871 104.8 46.8671 104.96 48.2271 105.28C49.5871 105.52 50.9071 105.96 52.1871 106.6C53.4671 107.24 54.3071 108.2 54.7071 109.48C54.8671 109.96 54.9471 110.56 54.9471 111.28C55.0271 111.92 55.0671 112.64 55.0671 113.44C55.0671 114.16 54.9871 114.84 54.8271 115.48C54.7471 116.12 54.6271 116.6 54.4671 116.92C53.9071 117.96 52.9071 118.68 51.4671 119.08C49.8671 119.48 47.5871 119.68 44.6271 119.68C44.1471 119.68 43.5871 119.68 42.9471 119.68C42.3871 119.68 41.4671 119.68 40.1871 119.68C38.9871 119.6 37.2671 119.56 35.0271 119.56C32.8671 119.56 29.9471 119.56 26.2671 119.56C25.1471 119.56 23.9871 119.6 22.7871 119.68C21.6671 119.76 20.8271 119.92 20.2671 120.16C19.7071 120.4 19.2671 120.88 18.9471 121.6C18.7071 122.24 18.5071 123 18.3471 123.88C18.2671 124.68 18.2271 125.48 18.2271 126.28C18.2271 127.08 18.2671 127.72 18.3471 128.2V128.32L18.8271 169.84C18.8271 171.44 19.1871 172.76 19.9071 173.8C20.6271 174.76 21.9071 175.24 23.7471 175.24C23.9871 175.24 24.8271 175.32 26.2671 175.48C27.7871 175.56 29.6671 175.64 31.9071 175.72C34.2271 175.8 36.7471 175.88 39.4671 175.96C42.1871 176.04 44.8671 176.08 47.5071 176.08ZM88.9071 138.16C90.3471 138.48 91.5871 139.12 92.6271 140.08C93.7471 141.04 94.3071 142.4 94.3071 144.16C94.3071 144.8 94.2671 145.4 94.1871 145.96C94.1871 146.44 94.1071 147 93.9471 147.64C93.7071 149 93.1871 150.16 92.3871 151.12C91.6671 152.08 90.5471 152.56 89.0271 152.56L79.1871 152.68C79.1071 154.76 79.0671 157.08 79.0671 159.64C79.0671 162.2 79.0671 164.84 79.0671 167.56C79.0671 170.28 79.0671 173.04 79.0671 175.84C79.1471 178.56 79.1871 181.16 79.1871 183.64C79.1871 184.68 79.1471 185.96 79.0671 187.48C78.9871 189 78.7071 190.48 78.2271 191.92C77.7471 193.28 77.0271 194.48 76.0671 195.52C75.1071 196.56 73.7471 197.12 71.9871 197.2C70.0671 197.36 68.5471 197.04 67.4271 196.24C66.3071 195.44 65.4671 194.4 64.9071 193.12C64.3471 191.92 63.9871 190.6 63.8271 189.16C63.6671 187.64 63.5871 186.24 63.5871 184.96V111.28C63.5871 111.2 63.5871 110.84 63.5871 110.2C63.5871 109.48 63.6671 108.68 63.8271 107.8C63.9871 106.84 64.2271 105.88 64.5471 104.92C64.9471 103.88 65.4671 103.04 66.1071 102.4C66.6671 101.84 67.4671 101.44 68.5071 101.2C69.6271 100.88 70.6271 100.72 71.5071 100.72C73.2671 100.72 74.7471 101.32 75.9471 102.52C77.0671 103.64 77.7071 104.84 77.8671 106.12C78.1071 107.32 78.3071 108.6 78.4671 109.96C78.8671 114.36 79.1071 118.88 79.1871 123.52C79.3471 128.16 79.4271 132.76 79.4271 137.32L88.9071 138.16ZM140.036 103.72C142.356 105.08 144.356 106.56 146.036 108.16C147.796 109.76 149.156 111.64 150.116 113.8C152.196 118.52 152.956 123.8 152.396 129.64C152.156 137.48 149.916 143.32 145.676 147.16C141.916 150.92 135.916 152.8 127.676 152.8C126.556 152.8 125.516 152.84 124.556 152.92C123.596 152.92 122.716 153 121.916 153.16C121.036 153.16 120.156 153.12 119.276 153.04C118.476 152.88 117.676 152.8 116.876 152.8C116.076 152.64 115.276 152.48 114.476 152.32C113.676 152.16 112.876 151.92 112.076 151.6C110.316 150.96 108.556 150.04 106.796 148.84C102.876 146.36 100.316 143.16 99.1165 139.24C97.8365 135.64 97.1965 131.6 97.1965 127.12C97.1965 125.12 97.3565 123.12 97.6765 121.12C97.9965 119.12 98.5565 117.24 99.3565 115.48C99.9965 113.56 100.916 111.88 102.116 110.44C103.396 108.92 104.956 107.4 106.796 105.88C109.356 103.72 112.396 102.2 115.916 101.32C117.516 100.76 119.156 100.4 120.836 100.24C122.596 100.08 124.316 100.08 125.996 100.24C126.876 100.24 127.636 100.32 128.276 100.48C128.916 100.56 129.556 100.6 130.196 100.6C131.316 100.6 132.356 100.84 133.316 101.32C133.796 101.48 134.316 101.64 134.876 101.8C135.516 101.88 136.036 102 136.436 102.16C136.916 102.32 137.476 102.56 138.116 102.88C138.756 103.12 139.396 103.4 140.036 103.72ZM104.516 178.96C104.516 177.12 104.756 175.52 105.236 174.16C105.716 172.72 106.436 171.36 107.396 170.08C108.516 168.96 109.716 167.96 110.996 167.08C112.276 166.12 113.836 165.28 115.676 164.56C117.356 163.76 119.236 163.16 121.316 162.76C123.396 162.28 125.636 161.84 128.036 161.44C130.356 161.28 132.756 161.16 135.236 161.08C137.796 160.92 140.476 160.84 143.276 160.84C145.916 160.84 148.516 160.92 151.076 161.08C153.636 161.16 156.076 161.28 158.396 161.44C160.796 161.6 162.996 161.92 164.996 162.4C167.076 162.8 168.996 163.32 170.756 163.96C172.436 164.6 173.956 165.4 175.316 166.36C176.676 167.24 177.916 168.24 179.036 169.36C180.876 171.44 181.796 174.64 181.796 178.96C181.796 182.88 180.876 186.04 179.036 188.44C176.716 190.76 173.956 192.56 170.756 193.84C168.996 194.48 167.076 195 164.996 195.4C162.996 195.88 160.796 196.2 158.396 196.36C156.076 196.52 153.636 196.64 151.076 196.72C148.516 196.88 145.916 196.96 143.276 196.96C140.476 196.96 137.796 196.88 135.236 196.72C132.756 196.64 130.356 196.52 128.036 196.36C125.636 196.2 123.396 195.88 121.316 195.4C119.236 195 117.356 194.48 115.676 193.84C113.836 193.2 112.276 192.44 110.996 191.56C109.716 190.6 108.516 189.56 107.396 188.44C105.476 185.96 104.516 182.8 104.516 178.96ZM138.356 131.08C138.356 130.2 138.356 129.36 138.356 128.56C138.356 127.68 138.276 126.92 138.116 126.28C138.116 125.4 137.996 124.6 137.756 123.88C137.596 123.16 137.356 122.48 137.036 121.84C136.876 121.2 136.596 120.64 136.196 120.16C135.796 119.6 135.356 119 134.876 118.36C133.916 117.4 132.556 116.64 130.796 116.08C129.116 115.44 127.196 115.12 125.036 115.12C123.916 115.12 122.876 115.2 121.916 115.36C120.956 115.52 119.996 115.76 119.036 116.08C118.156 116.4 117.276 116.88 116.396 117.52C115.596 118.16 114.756 118.88 113.876 119.68C112.676 121.28 111.836 123.28 111.356 125.68C111.116 127.12 111.116 128.72 111.356 130.48C111.596 131.36 111.876 132.2 112.196 133C112.516 133.8 112.876 134.52 113.276 135.16C113.596 135.8 114.076 136.44 114.716 137.08C115.356 137.64 116.076 138.16 116.876 138.64C117.836 139.04 118.796 139.4 119.756 139.72C120.796 140.04 121.956 140.2 123.236 140.2C124.756 140.44 126.356 140.44 128.036 140.2C128.836 140.2 129.596 140.08 130.316 139.84C131.116 139.52 131.916 139.2 132.716 138.88C133.356 138.56 133.956 138.16 134.516 137.68C135.156 137.2 135.716 136.56 136.196 135.76C136.596 135.12 136.996 134.44 137.396 133.72C137.876 132.92 138.196 132.04 138.356 131.08ZM166.316 178.96C166.316 178.32 166.156 177.72 165.836 177.16C165.516 176.52 164.956 176.04 164.156 175.72C163.436 175.4 162.596 175.08 161.636 174.76C160.756 174.44 159.756 174.12 158.636 173.8C157.516 173.64 156.396 173.52 155.276 173.44C154.156 173.28 152.916 173.2 151.556 173.2C150.036 173.2 148.596 173.16 147.236 173.08C145.956 172.92 144.636 172.84 143.276 172.84C141.756 172.84 140.316 172.92 138.956 173.08C137.676 173.16 136.436 173.2 135.236 173.2C133.796 173.2 132.516 173.28 131.396 173.44C130.276 173.52 129.156 173.64 128.036 173.8C126.916 174.12 125.916 174.44 125.036 174.76C124.156 175.08 123.356 175.4 122.636 175.72C121.996 176.04 121.516 176.52 121.196 177.16C120.876 177.72 120.716 178.32 120.716 178.96C120.716 180.24 121.356 181.16 122.636 181.72C123.996 182.76 125.796 183.4 128.036 183.64C129.156 183.8 130.276 183.96 131.396 184.12C132.516 184.2 133.796 184.24 135.236 184.24C136.436 184.4 137.676 184.52 138.956 184.6C140.316 184.6 141.756 184.6 143.276 184.6H151.556C152.916 184.6 154.156 184.6 155.276 184.6C156.396 184.52 157.516 184.4 158.636 184.24C160.956 184 162.796 183.36 164.156 182.32C165.596 181.76 166.316 180.64 166.316 178.96ZM180.956 112.96H182.516H185.276C185.756 112.96 186.236 112.96 186.716 112.96C187.196 112.96 187.596 113.04 187.916 113.2H189.836C191.356 113.6 192.516 114.16 193.316 114.88C193.636 115.04 193.836 115.32 193.916 115.72C194.076 116.12 194.156 116.56 194.156 117.04C194.316 117.36 194.396 117.8 194.396 118.36C194.476 118.84 194.516 119.4 194.516 120.04C194.516 120.68 194.476 121.2 194.396 121.6C194.396 122 194.236 122.4 193.916 122.8C193.356 123.6 192.756 124.24 192.116 124.72C191.476 125.12 190.716 125.32 189.836 125.32C188.876 125.48 187.836 125.6 186.716 125.68C185.676 125.68 184.596 125.76 183.476 125.92H180.956V133H189.836C191.196 133.4 192.196 133.92 192.836 134.56C193.236 134.72 193.516 135 193.676 135.4C193.836 135.72 193.996 136.04 194.156 136.36C194.156 136.84 194.196 137.32 194.276 137.8C194.436 138.28 194.516 138.84 194.516 139.48C194.516 140.12 194.476 140.68 194.396 141.16C194.396 141.64 194.236 142.08 193.916 142.48C192.796 144.08 191.436 145 189.836 145.24C188.876 145.24 187.836 145.32 186.716 145.48C185.676 145.56 184.596 145.6 183.476 145.6H180.956V147.16C180.796 147.64 180.676 148.08 180.596 148.48C180.596 148.88 180.596 149.28 180.596 149.68C180.436 150.16 180.276 150.64 180.116 151.12C179.956 151.6 179.796 152.08 179.636 152.56C179.316 152.96 178.996 153.36 178.676 153.76C178.356 154.16 177.956 154.52 177.476 154.84C176.996 155.16 176.436 155.44 175.796 155.68C175.156 155.92 174.396 156.04 173.516 156.04C172.876 156.04 172.276 156 171.716 155.92C171.156 155.76 170.716 155.52 170.396 155.2C169.436 154.8 168.796 154.2 168.476 153.4C168.156 153 167.916 152.64 167.756 152.32C167.596 152 167.436 151.68 167.276 151.36C167.116 150.96 166.996 150.56 166.916 150.16C166.916 149.68 166.796 149.24 166.556 148.84V110.08C166.556 109.92 166.556 109.64 166.556 109.24C166.636 108.76 166.796 108.12 167.036 107.32C167.036 105.8 167.316 104.6 167.876 103.72C168.196 102.92 168.716 102.32 169.436 101.92C170.236 101.44 171.196 101.08 172.316 100.84C173.916 100.68 175.236 100.8 176.276 101.2C177.316 101.52 178.236 102.04 179.036 102.76C179.356 103.56 179.676 104.08 179.996 104.32C180.156 104.48 180.236 104.72 180.236 105.04C180.316 105.28 180.436 105.56 180.596 105.88C180.596 106.28 180.636 106.64 180.716 106.96C180.876 107.2 180.956 107.4 180.956 107.56V109.84V112.96ZM255.932 133.12C255.932 136.88 255.092 140.44 253.412 143.8C251.732 147.16 249.372 150 246.332 152.32C243.612 154.32 240.612 155.72 237.332 156.52C234.132 157.32 230.892 157.6 227.612 157.36C224.332 157.12 221.172 156.4 218.132 155.2C215.092 153.92 212.372 152.24 209.972 150.16C207.652 148.08 205.772 145.6 204.332 142.72C202.892 139.84 202.172 136.64 202.172 133.12C202.172 129.92 202.652 127.04 203.612 124.48C204.572 121.92 205.892 119.64 207.572 117.64H205.412C203.412 117.64 201.732 117.04 200.372 115.84C199.012 114.56 198.332 113.04 198.332 111.28C198.332 109.44 199.012 107.92 200.372 106.72C201.732 105.44 203.412 104.8 205.412 104.8H221.252V100.96C221.252 99.36 221.932 98.04 223.292 97C224.652 95.88 226.292 95.32 228.212 95.32C230.132 95.32 231.772 95.88 233.132 97C234.492 98.04 235.172 99.36 235.172 100.96V104.8H251.852C253.852 104.8 255.532 105.44 256.892 106.72C258.252 107.92 258.932 109.44 258.932 111.28C258.932 113.04 258.252 114.56 256.892 115.84C255.532 117.04 253.852 117.64 251.852 117.64H250.412C252.092 119.64 253.412 121.92 254.372 124.48C255.412 127.04 255.932 129.92 255.932 133.12ZM223.292 196.24C220.012 196.24 217.372 195.52 215.372 194.08C213.372 192.72 212.372 191.12 212.372 189.28V172C212.212 170.24 212.212 168.44 212.372 166.6C212.532 164.92 213.172 163.56 214.292 162.52C215.492 161.48 217.012 160.96 218.852 160.96C219.252 160.96 219.972 161 221.012 161.08C222.052 161.08 222.772 161.16 223.172 161.32C224.212 161.64 225.012 162.12 225.572 162.76C226.212 163.4 226.692 164.16 227.012 165.04C227.332 165.84 227.532 166.72 227.612 167.68C227.692 168.56 227.772 169.44 227.852 170.32C227.852 170.64 227.852 171.4 227.852 172.6C227.932 173.72 227.972 174.96 227.972 176.32C228.052 177.6 228.092 178.8 228.092 179.92C228.172 181.04 228.252 181.72 228.332 181.96C228.572 182.04 229.212 182.16 230.252 182.32C231.372 182.4 233.412 182.44 236.372 182.44C238.932 182.44 240.492 182.4 241.052 182.32C241.692 182.24 242.052 182.2 242.132 182.2H281.372C281.372 182.2 281.612 182.28 282.092 182.44C282.652 182.6 283.252 182.88 283.892 183.28C284.532 183.6 285.132 184.08 285.692 184.72C286.252 185.28 286.612 185.96 286.772 186.76C287.172 189.8 286.652 192.16 285.212 193.84C284.252 194.96 283.212 195.64 282.092 195.88C280.972 196.12 280.372 196.24 280.292 196.24H223.292ZM283.412 138.64V154.36C283.332 155.24 283.212 156.16 283.052 157.12C282.892 158 282.532 158.88 281.972 159.76C281.412 160.8 280.692 161.56 279.812 162.04C278.532 162.92 277.132 163.36 275.612 163.36C274.332 163.36 273.172 163.04 272.132 162.4C271.252 161.92 270.532 161.32 269.972 160.6C269.492 159.88 269.092 159.2 268.772 158.56C268.532 157.92 268.372 157.36 268.292 156.88C268.212 156.32 268.172 156.04 268.172 156.04V110.32C268.172 109.92 268.212 109.04 268.292 107.68C268.452 106.24 268.772 105.04 269.252 104.08C270.132 102.4 271.892 101.44 274.532 101.2C277.492 100.8 279.772 101.4 281.372 103C281.852 103.64 282.212 104.28 282.452 104.92C282.692 105.48 282.892 106.08 283.052 106.72C283.292 107.52 283.412 108.36 283.412 109.24C283.492 110.12 283.492 111 283.412 111.88V125.2C283.732 125.2 284.372 125.24 285.332 125.32C286.292 125.4 287.292 125.48 288.332 125.56C289.372 125.56 290.332 125.6 291.212 125.68C292.172 125.76 292.812 125.84 293.132 125.92C294.812 126.24 296.012 126.72 296.732 127.36C297.452 127.92 297.932 128.64 298.172 129.52C298.332 130.4 298.412 131.44 298.412 132.64C298.412 133.76 298.172 134.72 297.692 135.52C296.652 137.12 295.132 138.04 293.132 138.28C291.132 138.52 288.852 138.64 286.292 138.64H283.412ZM231.452 143.8C234.012 143.32 236.212 142.2 238.052 140.44C239.972 138.6 240.932 136.16 240.932 133.12C240.932 130.72 240.332 128.72 239.132 127.12C238.012 125.52 236.572 124.32 234.812 123.52C233.052 122.64 231.132 122.2 229.052 122.2C226.972 122.12 225.052 122.48 223.292 123.28C221.532 124.08 220.052 125.32 218.852 127C217.732 128.6 217.172 130.64 217.172 133.12C217.172 135.28 217.612 137.12 218.492 138.64C219.372 140.16 220.492 141.36 221.852 142.24C223.212 143.12 224.732 143.68 226.412 143.92C228.092 144.16 229.772 144.12 231.452 143.8ZM369.324 115.36C369.324 115.36 369.284 115.84 369.204 116.8C369.204 117.76 369.204 118.84 369.204 120.04C369.204 121.24 369.204 122.36 369.204 123.4C369.284 124.44 369.324 125.04 369.324 125.2C369.724 125.6 370.444 126.28 371.484 127.24C372.524 128.12 373.404 128.88 374.124 129.52C374.924 130.16 375.724 130.88 376.524 131.68C377.404 132.4 378.284 133.2 379.164 134.08C379.724 134.64 380.244 135.2 380.724 135.76C381.204 136.24 381.644 136.68 382.044 137.08C383.564 138.6 385.084 140.24 386.604 142C388.124 143.76 389.164 145.56 389.724 147.4C389.964 148.12 390.004 148.92 389.844 149.8C389.684 150.68 389.164 151.44 388.284 152.08C386.924 152.88 385.484 153.28 383.964 153.28C382.204 153.28 380.524 152.92 378.924 152.2C377.324 151.48 376.044 150.76 375.084 150.04C373.564 148.92 372.164 147.76 370.884 146.56C369.604 145.28 368.324 144 367.044 142.72C366.164 141.84 365.164 140.84 364.044 139.72C362.924 138.52 361.804 137.48 360.684 136.6L357.444 139.84C356.884 140.4 356.324 140.96 355.764 141.52C355.204 142 354.684 142.52 354.204 143.08C353.164 144.2 352.084 145.36 350.964 146.56C349.844 147.68 348.564 148.76 347.124 149.8C343.844 152.2 340.764 153.4 337.884 153.4C337.484 153.4 337.124 153.4 336.804 153.4C336.564 153.4 336.244 153.32 335.844 153.16C334.084 152.76 332.924 152.04 332.364 151C331.804 150.12 331.604 149.12 331.764 148C332.004 146.88 332.364 145.88 332.844 145C333.484 144.12 334.204 143.28 335.004 142.48C335.804 141.6 336.604 140.72 337.404 139.84C338.124 139.04 339.244 137.92 340.764 136.48C342.364 134.96 343.964 133.44 345.564 131.92C347.164 130.32 348.644 128.88 350.004 127.6C351.364 126.32 352.204 125.52 352.524 125.2V115.36H344.844C343.884 115.36 342.764 115.4 341.484 115.48C340.204 115.48 338.924 115.4 337.644 115.24C336.444 115.08 335.324 114.76 334.284 114.28C333.244 113.72 332.484 112.84 332.004 111.64C331.604 110.76 331.324 109.76 331.164 108.64C331.084 107.52 331.164 106.48 331.404 105.52C331.724 104.4 332.444 103.64 333.564 103.24C334.684 102.76 335.764 102.44 336.804 102.28C336.964 102.28 337.604 102.28 338.724 102.28C339.924 102.28 341.204 102.28 342.564 102.28C343.924 102.28 345.204 102.28 346.404 102.28C347.604 102.28 348.324 102.24 348.564 102.16H376.644C379.844 102.16 382.524 102.36 384.684 102.76C386.924 103.16 388.724 104.16 390.084 105.76C390.484 106.24 390.724 106.88 390.804 107.68C390.964 108.48 390.964 109.32 390.804 110.2C390.724 111 390.484 111.76 390.084 112.48C389.764 113.2 389.284 113.72 388.644 114.04C388.004 114.28 387.244 114.56 386.364 114.88C385.484 115.12 384.724 115.28 384.084 115.36C382.964 115.44 381.804 115.48 380.604 115.48C379.484 115.4 378.364 115.36 377.244 115.36H369.324ZM407.964 163.6C411.324 163.6 413.764 164.32 415.284 165.76C416.884 167.2 417.684 168.84 417.684 170.68V177.52C417.684 177.76 417.684 178.36 417.684 179.32C417.684 180.2 417.684 181.16 417.684 182.2C417.684 183.24 417.684 184.2 417.684 185.08C417.764 185.96 417.804 186.52 417.804 186.76C417.804 187.64 417.804 188.52 417.804 189.4C417.804 190.28 417.764 191.16 417.684 192.04C417.524 193.72 416.844 195.08 415.644 196.12C414.524 197.16 413.044 197.68 411.204 197.68C410.804 197.68 410.084 197.64 409.044 197.56C408.084 197.56 407.404 197.48 407.004 197.32C405.884 197 405.004 196.52 404.364 195.88C403.804 195.24 403.364 194.52 403.044 193.72C402.724 192.92 402.524 192.08 402.444 191.2C402.364 190.24 402.284 189.32 402.204 188.44C402.204 188.12 402.204 187.44 402.204 186.4C402.204 185.36 402.164 184.28 402.084 183.16C402.084 181.96 402.044 180.88 401.964 179.92C401.884 178.88 401.804 178.2 401.724 177.88C401.484 177.8 400.844 177.72 399.804 177.64C398.764 177.56 396.724 177.52 393.684 177.52C391.124 177.52 389.524 177.56 388.884 177.64C388.324 177.64 388.004 177.64 387.924 177.64H344.604C344.524 177.64 344.204 177.56 343.644 177.4C343.164 177.24 342.604 177 341.964 176.68C341.324 176.28 340.724 175.8 340.164 175.24C339.604 174.68 339.284 174 339.204 173.2C338.724 170.08 339.204 167.68 340.644 166C341.604 164.88 342.644 164.24 343.764 164.08C344.884 163.84 345.484 163.68 345.564 163.6H407.964ZM417.564 136.6V147.52C417.484 148.4 417.364 149.32 417.204 150.28C417.044 151.16 416.724 152.04 416.244 152.92C415.764 153.88 415.084 154.68 414.204 155.32C413.564 155.72 412.804 156.04 411.924 156.28C411.124 156.44 410.404 156.52 409.764 156.52C409.124 156.52 408.444 156.48 407.724 156.4C407.004 156.24 406.404 156 405.924 155.68C405.124 155.2 404.484 154.6 404.004 153.88C403.524 153.16 403.124 152.48 402.804 151.84C402.564 151.12 402.404 150.52 402.324 150.04C402.244 149.48 402.204 149.2 402.204 149.2V109.6C402.124 109.28 402.164 108.4 402.324 106.96C402.484 105.52 402.804 104.32 403.284 103.36C403.684 102.56 404.364 101.92 405.324 101.44C406.364 100.96 407.444 100.64 408.564 100.48C409.924 100.32 411.284 100.4 412.644 100.72C414.004 101.04 415.004 101.56 415.644 102.28C416.124 102.92 416.444 103.56 416.604 104.2C416.844 104.76 417.044 105.36 417.204 106C417.444 106.8 417.564 107.64 417.564 108.52C417.644 109.4 417.644 110.28 417.564 111.16V119.44V120.52C417.564 120.92 417.524 121.36 417.444 121.84C417.444 122.24 417.484 122.72 417.564 123.28C417.884 123.28 418.484 123.32 419.364 123.4C420.244 123.4 421.164 123.44 422.124 123.52C423.084 123.52 424.004 123.56 424.884 123.64C425.764 123.72 426.404 123.8 426.804 123.88C428.404 124.2 429.524 124.68 430.164 125.32C430.804 125.88 431.204 126.6 431.364 127.48C431.604 128.36 431.724 129.4 431.724 130.6C431.724 131.72 431.484 132.68 431.004 133.48C430.044 135.08 428.604 136 426.684 136.24C424.764 136.4 422.644 136.52 420.324 136.6H417.564ZM442.87 195.16C442.79 195.16 442.67 195.08 442.51 194.92C441.71 194.28 441.15 193.4 440.83 192.28C440.59 191.16 440.47 190.16 440.47 189.28C440.39 187.84 440.27 186.4 440.11 184.96C440.03 183.52 439.99 182.12 439.99 180.76C439.99 178.68 439.99 176.8 439.99 175.12C439.99 173.44 440.19 171.6 440.59 169.6C440.83 168.32 441.23 167.32 441.79 166.6C442.35 165.8 443.23 165.16 444.43 164.68C446.67 163.8 448.91 163.36 451.15 163.36H472.87L472.99 156.16C471.15 156.16 468.75 156.16 465.79 156.16C462.91 156.08 459.91 156.04 456.79 156.04C453.67 155.96 450.67 155.88 447.79 155.8C444.91 155.72 442.63 155.6 440.95 155.44C439.67 155.28 438.63 155.12 437.83 154.96C437.11 154.72 436.23 154.12 435.19 153.16C434.63 152.68 434.23 152.08 433.99 151.36C433.75 150.56 433.63 149.72 433.63 148.84C433.63 147.16 434.15 145.8 435.19 144.76C435.75 144.12 436.51 143.64 437.47 143.32C438.43 143 439.35 142.76 440.23 142.6C441.11 142.44 441.87 142.36 442.51 142.36C443.23 142.36 443.63 142.36 443.71 142.36H512.35C513.55 142.36 514.75 142.36 515.95 142.36C517.15 142.36 518.31 142.4 519.43 142.48C520.55 142.56 521.63 142.72 522.67 142.96C523.79 143.2 524.79 143.72 525.67 144.52C526.55 145.16 527.03 145.88 527.11 146.68C527.27 147.48 527.35 148.36 527.35 149.32C527.35 151.88 526.07 153.6 523.51 154.48C521.91 155.12 520.15 155.52 518.23 155.68C516.39 155.76 514.63 155.84 512.95 155.92C508.95 156.08 505.03 156.2 501.19 156.28C497.35 156.36 493.39 156.4 489.31 156.4L489.19 163.36H507.67C509.19 163.44 510.75 163.56 512.35 163.72C513.95 163.88 515.47 164.28 516.91 164.92C518.51 165.56 519.55 166.48 520.03 167.68C520.59 168.8 520.95 170.16 521.11 171.76C521.19 173.12 521.23 174.68 521.23 176.44C521.31 178.2 521.31 180 521.23 181.84C521.15 183.6 521.03 185.36 520.87 187.12C520.71 188.88 520.43 190.48 520.03 191.92C519.79 192.8 519.51 193.56 519.19 194.2C518.87 194.92 518.23 195.44 517.27 195.76C516.39 196.08 515.47 196.28 514.51 196.36C513.63 196.44 512.75 196.48 511.87 196.48L449.35 196.24C448.31 196.16 447.19 196.12 445.99 196.12C444.79 196.12 443.75 195.8 442.87 195.16ZM453.55 115.48C452.35 115.4 451.11 115.36 449.83 115.36C448.55 115.36 447.31 115.24 446.11 115C444.99 114.76 443.91 114.36 442.87 113.8C441.91 113.16 441.11 112.2 440.47 110.92C439.51 109.08 439.47 107.4 440.35 105.88C441.31 104.28 442.71 103.16 444.55 102.52C446.39 101.88 448.43 101.56 450.67 101.56C452.91 101.56 455.03 101.56 457.03 101.56C460.31 101.56 464.23 101.56 468.79 101.56C473.35 101.56 477.99 101.6 482.71 101.68C487.51 101.68 492.19 101.68 496.75 101.68C501.31 101.68 505.23 101.68 508.51 101.68C510.11 101.68 511.87 101.8 513.79 102.04C515.79 102.2 517.39 102.92 518.59 104.2C519.71 105.48 520.27 107.12 520.27 109.12C520.27 111.04 519.55 112.56 518.11 113.68C517.79 114 517.31 114.28 516.67 114.52C515.15 115.16 513.47 115.4 511.63 115.24C509.87 115.08 508.19 115.16 506.59 115.48C506.59 115.56 506.59 116 506.59 116.8C506.67 117.6 506.75 118.44 506.83 119.32C506.91 120.44 506.95 121.68 506.95 123.04C506.95 122.96 507.31 122.96 508.03 123.04C508.83 123.04 509.67 123.08 510.55 123.16C511.51 123.24 512.39 123.36 513.19 123.52C513.99 123.6 514.47 123.64 514.63 123.64C516.63 123.96 518.11 124.44 519.07 125.08C520.11 125.64 520.51 127.12 520.27 129.52C520.11 131.52 519.67 133 518.95 133.96C518.31 134.84 517.47 135.48 516.43 135.88C515.39 136.2 514.15 136.36 512.71 136.36C511.35 136.28 509.87 136.24 508.27 136.24C506.19 136.32 504.11 136.36 502.03 136.36C500.03 136.28 497.99 136.24 495.91 136.24C494.31 136.24 492.11 136.24 489.31 136.24C486.51 136.24 483.59 136.24 480.55 136.24C477.51 136.24 474.55 136.28 471.67 136.36C468.87 136.36 466.71 136.36 465.19 136.36C463.03 136.36 460.67 136.36 458.11 136.36C455.63 136.36 453.31 136.32 451.15 136.24C450.11 136.24 448.95 136.16 447.67 136C446.47 135.84 445.31 135.52 444.19 135.04C443.07 134.56 442.11 133.92 441.31 133.12C440.51 132.24 440.03 131.12 439.87 129.76C439.63 127.92 439.99 126.56 440.95 125.68C441.99 124.8 443.23 124.2 444.67 123.88C446.19 123.56 447.79 123.44 449.47 123.52C451.15 123.52 452.59 123.44 453.79 123.28C453.71 121.76 453.59 120.44 453.43 119.32C453.35 118.12 453.39 116.84 453.55 115.48ZM454.27 181.48C454.27 181.88 454.27 182.28 454.27 182.68C454.35 183.08 454.51 183.36 454.75 183.52C454.91 183.68 455.15 183.8 455.47 183.88C455.87 183.88 456.27 183.88 456.67 183.88C457.07 183.88 457.55 183.84 458.11 183.76H495.67C496.79 183.84 497.87 183.92 498.91 184C499.79 184.08 500.71 184.12 501.67 184.12C502.63 184.12 503.51 184.04 504.31 183.88C505.11 183.8 505.59 183.56 505.75 183.16C505.91 182.76 506.03 182.2 506.11 181.48C506.19 180.84 506.23 180.12 506.23 179.32C506.23 178.44 505.99 177.68 505.51 177.04C504.95 176.4 504.15 176.08 503.11 176.08C502.15 176 501.27 176 500.47 176.08H467.11C465.35 175.92 463.63 175.88 461.95 175.96C460.27 175.96 458.55 176 456.79 176.08C456.15 176.08 455.63 176.12 455.23 176.2C454.91 176.2 454.67 176.56 454.51 177.28C454.35 177.84 454.27 178.4 454.27 178.96C454.27 179.44 454.27 179.92 454.27 180.4C454.35 180.56 454.35 180.72 454.27 180.88C454.27 181.04 454.27 181.24 454.27 181.48ZM491.95 115.48H468.91C468.59 115.8 468.39 116.24 468.31 116.8V123.04C468.87 123.04 470.31 123.04 472.63 123.04C475.03 123.04 477.55 123.04 480.19 123.04C482.91 123.04 485.43 123.04 487.75 123.04C490.15 123.04 491.63 123.04 492.19 123.04L491.95 115.48ZM611.745 188.44C612.945 188.6 614.025 188.96 614.985 189.52C615.945 190 616.625 190.92 617.025 192.28C617.985 195.24 616.945 197.4 613.905 198.76C613.025 199.16 612.105 199.4 611.145 199.48C610.185 199.56 609.265 199.6 608.385 199.6H553.185C551.585 199.6 549.945 199.56 548.265 199.48C546.585 199.48 544.865 199.44 543.105 199.36C541.505 199.28 540.145 198.64 539.025 197.44C537.905 196.24 537.265 194.68 537.105 192.76L536.745 183.88C536.665 183 536.665 181.92 536.745 180.64C536.825 179.36 537.225 178.32 537.945 177.52C539.065 176.24 540.545 175.44 542.385 175.12C544.225 174.8 546.025 174.64 547.785 174.64C548.905 174.64 550.745 174.64 553.305 174.64C555.865 174.64 559.345 174.68 563.745 174.76C568.145 174.76 573.585 174.76 580.065 174.76C586.625 174.76 594.425 174.76 603.465 174.76V170.2H545.145C544.345 170.2 543.625 170.2 542.985 170.2C542.345 170.2 541.745 170.12 541.185 169.96C540.465 169.72 539.825 169.52 539.265 169.36C538.705 169.2 538.225 168.8 537.825 168.16C536.705 166.32 536.425 164.52 536.985 162.76C537.225 162.04 537.585 161.48 538.065 161.08C538.545 160.68 539.065 160.36 539.625 160.12C540.265 159.88 540.905 159.72 541.545 159.64C542.185 159.56 542.705 159.48 543.105 159.4C544.305 159.16 545.545 159.04 546.825 159.04C548.585 159.04 550.585 159.04 552.825 159.04C555.145 159.04 558.345 159.08 562.425 159.16C566.585 159.16 571.985 159.16 578.625 159.16C585.345 159.16 594.025 159.16 604.665 159.16C608.745 159.16 611.825 159.84 613.905 161.2C616.065 162.48 617.145 164.6 617.145 167.56V176.44C617.145 177.56 616.865 178.72 616.305 179.92C615.825 181.04 614.945 182 613.665 182.8C612.705 183.44 611.705 183.8 610.665 183.88C609.625 183.88 608.585 183.88 607.545 183.88H551.385V188.44H611.745ZM537.225 116.44C537.225 113.16 538.145 110.4 539.985 108.16C541.905 105.84 544.585 104 548.025 102.64C551.545 101.2 555.825 100.16 560.865 99.52C565.905 98.88 571.625 98.56 578.025 98.56C584.105 98.56 589.665 98.84 594.705 99.4C599.745 99.88 604.065 100.8 607.665 102.16C611.265 103.44 614.025 105.24 615.945 107.56C617.945 109.88 618.945 112.84 618.945 116.44C618.945 120.04 618.105 123 616.425 125.32C614.745 127.64 612.185 129.48 608.745 130.84C605.305 132.12 601.025 133.04 595.905 133.6C590.785 134.08 584.825 134.32 578.025 134.32C572.345 134.32 567.025 134.08 562.065 133.6C557.185 133.04 552.865 132.12 549.105 130.84C545.425 129.48 542.505 127.64 540.345 125.32C538.265 123 537.225 120.04 537.225 116.44ZM541.905 139.6C542.545 139.52 543.265 139.48 544.065 139.48C544.865 139.4 545.705 139.36 546.585 139.36H549.585H575.985C580.225 139.28 584.385 139.24 588.465 139.24C591.905 139.24 595.505 139.24 599.265 139.24C603.025 139.24 606.265 139.28 608.985 139.36H609.585C611.185 139.44 612.785 139.48 614.385 139.48C615.985 139.48 617.585 139.8 619.185 140.44C620.305 140.84 621.185 141.52 621.825 142.48C622.545 143.44 622.905 144.52 622.905 145.72C622.905 147.72 622.105 149.4 620.505 150.76C619.225 151.88 617.665 152.52 615.825 152.68C613.985 152.84 612.265 152.84 610.665 152.68H541.785C541.705 152.68 541.345 152.68 540.705 152.68C540.065 152.68 539.305 152.6 538.425 152.44C537.625 152.28 536.745 152.04 535.785 151.72C534.905 151.4 534.185 150.92 533.625 150.28C532.665 149.32 532.185 147.96 532.185 146.2C532.185 144.52 532.705 143.16 533.745 142.12C534.785 141.08 535.865 140.48 536.985 140.32C538.105 140.08 539.265 139.88 540.465 139.72C540.705 139.72 540.945 139.72 541.185 139.72C541.425 139.64 541.665 139.6 541.905 139.6ZM602.505 116.44C602.505 115.16 601.745 114.12 600.225 113.32C598.785 112.52 596.905 111.92 594.585 111.52C592.265 111.04 589.625 110.72 586.665 110.56C583.785 110.4 580.905 110.32 578.025 110.32C575.145 110.32 572.305 110.4 569.505 110.56C566.705 110.72 564.185 111.04 561.945 111.52C559.705 111.92 557.865 112.52 556.425 113.32C555.065 114.12 554.385 115.16 554.385 116.44C554.385 117.56 555.065 118.48 556.425 119.2C557.785 119.92 559.585 120.48 561.825 120.88C564.065 121.28 566.545 121.56 569.265 121.72C572.065 121.88 574.905 121.96 577.785 121.96C580.665 121.96 583.545 121.96 586.425 121.96C589.385 121.88 592.065 121.68 594.465 121.36C596.865 121.04 598.785 120.52 600.225 119.8C601.745 119 602.505 117.88 602.505 116.44Z" fill="black" fill-opacity="0.3"/>
<path d="M103.37 252.44C102.81 252.52 101.53 252.56 99.5298 252.56C97.6098 252.56 95.5298 252.56 93.2898 252.56C91.0498 252.48 88.9298 252.44 86.9298 252.44C84.9298 252.44 83.6098 252.44 82.9698 252.44H82.8498C81.4098 252.44 79.9698 252.44 78.5298 252.44C77.1698 252.36 75.8498 252.24 74.5698 252.08C73.2898 251.84 72.1298 251.48 71.0898 251C70.0498 250.52 69.2098 249.8 68.5698 248.84C67.8498 247.8 67.3298 246.48 67.0098 244.88C66.7698 243.28 66.5698 241.76 66.4098 240.32C66.3298 238.8 66.2898 237.48 66.2898 236.36C66.3698 235.24 66.4098 234.64 66.4098 234.56V231.92C66.4098 231.04 66.4098 230.04 66.4098 228.92C66.4098 227.8 66.4498 226.56 66.5298 225.2C66.5298 223.76 66.5298 222.36 66.5298 221C66.6098 219.56 66.6498 218.28 66.6498 217.16V213.32C66.6498 213.08 66.6498 212.64 66.6498 212C66.6498 211.36 66.6898 210.68 66.7698 209.96C66.8498 209.16 66.9698 208.4 67.1298 207.68C67.2898 206.88 67.5298 206.24 67.8498 205.76C68.5698 204.64 69.2898 203.84 70.0098 203.36C70.8098 202.8 71.8098 202.4 73.0098 202.16C73.4098 202.08 74.0098 202.04 74.8098 202.04C75.6098 201.96 76.3698 201.88 77.0898 201.8C77.9698 201.72 78.8898 201.68 79.8498 201.68H106.97C108.73 201.68 110.57 201.84 112.49 202.16C114.49 202.4 116.25 203 117.77 203.96C118.97 204.68 119.81 205.6 120.29 206.72C120.77 207.84 121.09 209.04 121.25 210.32C121.41 211.6 121.45 212.92 121.37 214.28C121.29 215.56 121.25 216.76 121.25 217.88C121.25 219.16 121.21 220.44 121.13 221.72C121.13 222.92 121.17 224.16 121.25 225.44V232.04C121.17 232.44 121.13 232.88 121.13 233.36C121.21 233.84 121.25 234.32 121.25 234.8C121.09 235.84 121.05 236.88 121.13 237.92C121.21 238.88 121.25 239.92 121.25 241.04C121.25 241.92 121.17 242.88 121.01 243.92C120.93 244.88 120.69 245.88 120.29 246.92C119.97 247.88 119.49 248.76 118.85 249.56C118.29 250.36 117.53 250.92 116.57 251.24C114.49 252.12 112.29 252.56 109.97 252.56C107.73 252.48 105.53 252.44 103.37 252.44ZM90.0498 296.36C86.7698 296.36 84.1298 295.64 82.1298 294.2C80.1298 292.84 79.1298 291.24 79.1298 289.4V272.12C78.9698 270.36 78.9698 268.56 79.1298 266.72C79.2898 265.04 79.9298 263.68 81.0498 262.64C82.2498 261.6 83.7698 261.08 85.6098 261.08C86.0098 261.08 86.7298 261.12 87.7698 261.2C88.8098 261.2 89.5298 261.28 89.9298 261.44C90.9698 261.76 91.7698 262.24 92.3298 262.88C92.9698 263.52 93.4498 264.28 93.7698 265.16C94.0898 265.96 94.2898 266.84 94.3698 267.8C94.4498 268.68 94.5298 269.56 94.6098 270.44C94.6098 270.76 94.6098 271.52 94.6098 272.72C94.6898 273.84 94.7298 275.08 94.7298 276.44C94.8098 277.72 94.8498 278.92 94.8498 280.04C94.9298 281.16 95.0098 281.84 95.0898 282.08C95.3298 282.16 95.9698 282.28 97.0098 282.44C98.1298 282.52 100.17 282.56 103.13 282.56C105.69 282.56 107.25 282.52 107.81 282.44C108.45 282.36 108.81 282.32 108.89 282.32H148.13C148.13 282.32 148.37 282.4 148.85 282.56C149.41 282.72 150.01 283 150.65 283.4C151.29 283.72 151.89 284.2 152.45 284.84C153.01 285.4 153.37 286.08 153.53 286.88C153.93 289.92 153.41 292.28 151.97 293.96C151.01 295.08 149.97 295.76 148.85 296C147.73 296.24 147.13 296.36 147.05 296.36H90.0498ZM151.01 238.4V250.88C150.93 251.76 150.81 252.68 150.65 253.64C150.49 254.52 150.17 255.4 149.69 256.28C149.13 257.32 148.45 258.08 147.65 258.56C146.37 259.44 145.01 259.88 143.57 259.88C142.37 259.88 141.25 259.56 140.21 258.92C139.41 258.44 138.77 257.84 138.29 257.12C137.81 256.4 137.41 255.72 137.09 255.08C136.85 254.44 136.69 253.88 136.61 253.4C136.53 252.84 136.49 252.56 136.49 252.56V210.44C136.49 210.04 136.53 209.16 136.61 207.8C136.77 206.36 137.09 205.16 137.57 204.2C138.37 202.52 140.01 201.56 142.49 201.32C143.85 201.16 145.13 201.24 146.33 201.56C147.53 201.88 148.45 202.4 149.09 203.12C149.57 203.76 149.89 204.4 150.05 205.04C150.29 205.6 150.49 206.2 150.65 206.84C150.89 207.64 151.01 208.48 151.01 209.36C151.09 210.24 151.09 211.12 151.01 212V224.96C151.33 224.96 151.85 225 152.57 225.08C153.37 225.16 154.17 225.24 154.97 225.32C155.85 225.32 156.65 225.36 157.37 225.44C158.17 225.52 158.73 225.6 159.05 225.68C160.65 226 161.77 226.48 162.41 227.12C163.05 227.68 163.49 228.4 163.73 229.28C163.89 230.16 163.97 231.2 163.97 232.4C163.97 233.52 163.73 234.48 163.25 235.28C162.29 236.88 160.85 237.8 158.93 238.04C157.01 238.28 154.89 238.4 152.57 238.4H151.01ZM88.0098 216.68C87.2898 216.68 86.6098 216.68 85.9698 216.68C85.4098 216.68 84.8898 216.76 84.4098 216.92C83.2898 217 82.3698 217.48 81.6498 218.36C81.3298 218.76 81.1298 219.36 81.0498 220.16C81.0498 220.96 81.0498 221.44 81.0498 221.6V226.64C80.9698 227.28 80.9298 227.88 80.9298 228.44C80.9298 228.92 80.9298 229.36 80.9298 229.76V231.2C80.9298 231.2 80.9298 231.44 80.9298 231.92C80.9298 232.4 80.9298 232.96 80.9298 233.6C81.0098 234.24 81.1298 234.88 81.2898 235.52C81.4498 236.16 81.7298 236.72 82.1298 237.2C82.7698 238 83.8098 238.48 85.2498 238.64C86.6898 238.72 88.1298 238.76 89.5698 238.76H89.6898C91.7698 238.68 93.4898 238.68 94.8498 238.76C96.2098 238.76 97.9698 238.76 100.13 238.76C100.77 238.76 101.41 238.8 102.05 238.88C102.77 238.88 103.45 238.8 104.09 238.64C104.73 238.56 105.17 238.36 105.41 238.04C105.65 237.72 105.85 237.32 106.01 236.84C106.17 236.2 106.25 235.68 106.25 235.28C106.57 233.76 106.73 232.04 106.73 230.12C106.73 228.84 106.73 227.56 106.73 226.28C106.81 225 106.81 223.72 106.73 222.44C106.65 221.8 106.61 221.16 106.61 220.52C106.69 219.88 106.65 219.24 106.49 218.6C106.17 217.72 105.65 217.24 104.93 217.16C104.21 217 103.49 216.92 102.77 216.92L88.0098 216.68ZM189.006 264.2C189.006 265.32 188.966 266.44 188.886 267.56C188.806 268.6 188.806 269.68 188.886 270.8C188.886 271.36 188.926 271.92 189.006 272.48C189.086 273.04 189.326 273.52 189.726 273.92C190.206 274.32 190.766 274.56 191.406 274.64C192.126 274.64 192.806 274.64 193.446 274.64C194.326 274.64 195.246 274.68 196.206 274.76C197.166 274.76 198.086 274.76 198.966 274.76C200.006 274.76 201.246 274.76 202.686 274.76C204.126 274.76 205.566 274.76 207.006 274.76C208.526 274.76 210.006 274.8 211.446 274.88C212.886 274.96 214.086 275.04 215.046 275.12C216.406 275.28 217.806 275.52 219.246 275.84C220.766 276.08 222.126 276.6 223.326 277.4C223.966 277.8 224.406 278.36 224.646 279.08C224.966 279.72 225.166 280.4 225.246 281.12C225.326 281.52 225.366 281.92 225.366 282.32C225.366 282.64 225.366 283 225.366 283.4C225.206 285.32 224.566 286.92 223.446 288.2C222.326 289.4 220.846 290.2 219.006 290.6C217.886 290.76 216.766 290.92 215.646 291.08C214.606 291.24 213.526 291.32 212.406 291.32C212.006 291.32 211.366 291.32 210.486 291.32C209.606 291.32 208.646 291.32 207.606 291.32C206.566 291.24 205.606 291.2 204.726 291.2C203.846 291.2 203.246 291.2 202.926 291.2H191.886C190.286 291.2 188.726 291.12 187.206 290.96C185.766 290.8 184.246 290.68 182.646 290.6C181.446 290.52 180.206 290.32 178.926 290C177.646 289.6 176.566 288.96 175.686 288.08C174.806 287.2 174.126 286.24 173.646 285.2C173.246 284.16 172.926 283.08 172.686 281.96C172.206 279.4 172.006 276.76 172.086 274.04C172.166 271.32 172.206 268.64 172.206 266V236.6C172.206 235.24 172.206 233.84 172.206 232.4C172.286 230.96 172.286 229.52 172.206 228.08C172.206 228 172.166 227.4 172.086 226.28C172.086 225.08 172.086 223.68 172.086 222.08C172.086 220.4 172.086 218.72 172.086 217.04C172.086 215.28 172.126 213.72 172.206 212.36C172.286 210.76 172.646 209.12 173.286 207.44C173.926 205.68 175.286 204.36 177.366 203.48C178.246 203.16 179.166 202.92 180.126 202.76C181.086 202.6 182.046 202.64 183.006 202.88C183.966 203.12 184.846 203.56 185.646 204.2C186.526 204.76 187.166 205.56 187.566 206.6C188.046 207.72 188.366 208.92 188.526 210.2C188.766 211.4 188.886 212.68 188.886 214.04C188.886 214.92 188.886 215.8 188.886 216.68C188.886 217.56 188.926 218.44 189.006 219.32V264.2ZM253.086 237.2C253.486 237.2 253.846 237.24 254.166 237.32C254.566 237.4 254.966 237.44 255.366 237.44C255.766 237.52 256.206 237.6 256.686 237.68C257.166 237.68 257.646 237.72 258.126 237.8C259.006 237.96 259.886 238.28 260.766 238.76C261.646 239.16 262.286 239.8 262.686 240.68C263.246 241.56 263.526 242.6 263.526 243.8C263.526 244.44 263.486 245.04 263.406 245.6C263.406 246.08 263.326 246.64 263.166 247.28C263.006 247.92 262.806 248.6 262.566 249.32C262.406 250.04 262.046 250.6 261.486 251C260.366 251.8 259.286 252.32 258.246 252.56C256.966 252.72 255.406 252.76 253.566 252.68C251.726 252.6 250.166 252.6 248.886 252.68C248.806 252.68 248.726 252.72 248.646 252.8H248.526L248.406 252.92V253.28C248.406 254.24 248.406 255.4 248.406 256.76C248.406 258.12 248.406 259.52 248.406 260.96C248.406 262.32 248.406 263.68 248.406 265.04C248.406 266.32 248.406 267.48 248.406 268.52C248.566 272.68 248.566 276.76 248.406 280.76V282.44C248.406 283.48 248.366 284.64 248.286 285.92C248.286 287.12 248.206 288.32 248.046 289.52C247.886 290.72 247.606 291.88 247.206 293C246.806 294.04 246.246 294.92 245.526 295.64C244.566 296.76 243.286 297.32 241.686 297.32C241.686 297.32 241.606 297.28 241.446 297.2C239.526 297.12 237.966 296.56 236.766 295.52C235.646 294.48 234.766 293.2 234.126 291.68C233.566 290.16 233.206 288.6 233.046 287C232.886 285.32 232.806 283.84 232.806 282.56V211.28C232.806 211.2 232.806 210.84 232.806 210.2C232.806 209.48 232.886 208.68 233.046 207.8C233.206 206.84 233.446 205.88 233.766 204.92C234.166 203.88 234.686 203.04 235.326 202.4C235.886 201.84 236.686 201.44 237.726 201.2C238.846 200.88 239.846 200.72 240.726 200.72C242.486 200.72 243.966 201.32 245.166 202.52C246.286 203.64 246.926 204.84 247.086 206.12C247.326 207.32 247.526 208.6 247.686 209.96C247.766 210.28 247.806 210.76 247.806 211.4C247.966 212.76 248.046 214.16 248.046 215.6C248.126 217.04 248.206 218.48 248.286 219.92C248.286 220.8 248.286 221.68 248.286 222.56C248.366 223.36 248.406 224.2 248.406 225.08C248.326 225.56 248.286 226.04 248.286 226.52C248.366 226.92 248.406 227.32 248.406 227.72V234.32C248.406 234.72 248.406 235.16 248.406 235.64C248.406 236.12 248.486 236.56 248.646 236.96C248.646 237.04 249.046 237.08 249.846 237.08C250.646 237.08 251.086 237.08 251.166 237.08C251.886 237.24 252.446 237.28 252.846 237.2H253.086ZM348.255 275.24C348.495 275.32 348.735 275.36 348.975 275.36C349.215 275.28 349.455 275.24 349.695 275.24C351.055 275.4 352.295 275.68 353.415 276.08C354.615 276.4 355.775 277.04 356.895 278C358.015 279.12 358.575 280.52 358.575 282.2C358.575 283.08 358.415 284.04 358.095 285.08C357.855 286.04 357.495 286.8 357.015 287.36C356.375 288 355.575 288.48 354.615 288.8C353.655 289.12 352.735 289.36 351.855 289.52C350.975 289.6 350.175 289.64 349.455 289.64C348.815 289.64 348.455 289.64 348.375 289.64H281.175C280.775 289.64 280.375 289.68 279.975 289.76C279.575 289.76 279.175 289.76 278.775 289.76C277.095 289.84 275.295 289.84 273.375 289.76C271.455 289.6 269.815 288.96 268.455 287.84C266.775 286.32 265.935 284.6 265.935 282.68C265.935 281.48 266.295 280.24 267.015 278.96C267.735 277.68 268.695 276.8 269.895 276.32C271.495 275.68 273.135 275.36 274.815 275.36C276.575 275.36 278.335 275.32 280.095 275.24H280.695C287.655 275.08 294.815 275.08 302.175 275.24L302.055 258.68C299.015 258.76 296.255 258.8 293.775 258.8C291.375 258.8 289.455 258.72 288.015 258.56C286.335 258.48 284.495 258.36 282.495 258.2C280.495 257.96 278.815 257.32 277.455 256.28C276.575 255.56 275.855 254.56 275.295 253.28C274.815 252 274.455 250.72 274.215 249.44C273.975 248.16 273.815 247.04 273.735 246.08C273.735 245.04 273.735 244.48 273.735 244.4V218.6C273.735 217 273.655 215.4 273.495 213.8C273.415 212.2 273.535 210.6 273.855 209C274.095 208.04 274.495 207.28 275.055 206.72C275.695 206.08 276.415 205.6 277.215 205.28C278.095 204.88 279.015 204.6 279.975 204.44C281.015 204.28 281.975 204.16 282.855 204.08C283.575 204.08 284.335 204.12 285.135 204.2C285.935 204.28 286.695 204.48 287.415 204.8C288.135 205.04 288.735 205.44 289.215 206C289.775 206.48 290.135 207.12 290.295 207.92C290.375 208.32 290.375 209.08 290.295 210.2C290.295 211.32 290.295 212.56 290.295 213.92C290.295 215.2 290.295 216.44 290.295 217.64C290.375 218.76 290.495 219.48 290.655 219.8C290.815 220.2 291.215 220.48 291.855 220.64C292.575 220.72 293.135 220.8 293.535 220.88C295.375 221.04 296.815 221.08 297.855 221C298.895 220.84 300.335 220.76 302.175 220.76L329.655 220.88C330.535 220.96 331.255 220.96 331.815 220.88C332.455 220.72 332.895 220.2 333.135 219.32C333.135 218.92 333.135 218.24 333.135 217.28C333.215 216.24 333.255 215.2 333.255 214.16C333.255 213.04 333.255 212.04 333.255 211.16C333.335 210.2 333.375 209.56 333.375 209.24C333.455 207.8 333.735 206.68 334.215 205.88C334.775 205 335.815 204.4 337.335 204.08C338.935 203.68 340.655 203.6 342.495 203.84C344.415 204 345.815 204.52 346.695 205.4C347.975 206.76 348.695 208.32 348.855 210.08C349.015 211.84 349.095 214.28 349.095 217.4C349.015 219.24 348.975 221.64 348.975 224.6C349.055 227.48 349.095 230.48 349.095 233.6C349.095 236.72 349.055 239.72 348.975 242.6C348.975 245.48 348.895 247.84 348.735 249.68C348.335 254.56 345.815 257.36 341.175 258.08C339.975 258.24 338.615 258.32 337.095 258.32C335.655 258.32 334.335 258.32 333.135 258.32C330.575 258.4 328.055 258.44 325.575 258.44C323.095 258.44 320.655 258.44 318.255 258.44L318.495 275.24C320.495 275.24 322.375 275.24 324.135 275.24C325.975 275.16 327.735 275.12 329.415 275.12C331.095 275.12 332.815 275.12 334.575 275.12C336.335 275.12 338.175 275.16 340.095 275.24C341.535 275.32 342.935 275.32 344.295 275.24C345.655 275.08 346.975 275.08 348.255 275.24ZM290.655 243.2C290.975 244.4 291.815 245.12 293.175 245.36C294.615 245.52 296.015 245.64 297.375 245.72C297.535 245.72 298.295 245.72 299.655 245.72C301.015 245.64 302.655 245.6 304.575 245.6C306.495 245.6 308.535 245.6 310.695 245.6C312.935 245.52 315.015 245.48 316.935 245.48C318.935 245.48 320.615 245.52 321.975 245.6C323.335 245.6 324.135 245.6 324.375 245.6C325.015 245.68 325.655 245.72 326.295 245.72C327.015 245.64 327.695 245.64 328.335 245.72C328.735 245.72 329.175 245.76 329.655 245.84C330.215 245.92 330.735 245.92 331.215 245.84C331.695 245.76 332.095 245.56 332.415 245.24C332.735 244.92 332.895 244.44 332.895 243.8C332.895 243.48 332.895 243 332.895 242.36C332.895 241.64 332.895 240.88 332.895 240.08C332.895 239.2 332.855 238.36 332.775 237.56C332.775 236.68 332.695 235.96 332.535 235.4C332.295 234.44 331.895 233.92 331.335 233.84C330.855 233.68 330.215 233.64 329.415 233.72C329.015 233.72 328.375 233.76 327.495 233.84C326.695 233.84 326.095 233.8 325.695 233.72H298.335C297.615 233.72 296.815 233.72 295.935 233.72C295.055 233.64 294.215 233.68 293.415 233.84C292.695 233.92 292.055 234.2 291.495 234.68C290.935 235.08 290.615 235.76 290.535 236.72C290.535 236.96 290.535 237.4 290.535 238.04C290.535 238.68 290.535 239.36 290.535 240.08C290.535 240.8 290.535 241.48 290.535 242.12C290.615 242.68 290.655 243.04 290.655 243.2ZM433.998 281.36C433.998 283.36 433.918 284.96 433.758 286.16C433.678 287.36 433.318 288.88 432.678 290.72C432.278 291.92 431.598 292.92 430.638 293.72C429.678 294.52 428.318 294.92 426.558 294.92C426.078 294.92 425.438 294.84 424.638 294.68C423.838 294.6 423.238 294.4 422.838 294.08C422.038 293.6 421.398 292.84 420.918 291.8C420.518 290.68 420.198 289.52 419.958 288.32C419.718 287.12 419.558 285.96 419.478 284.84C419.478 283.72 419.478 282.84 419.478 282.2V250.16L411.678 249.8C410.958 249.8 410.198 249.72 409.398 249.56C408.678 249.32 407.958 248.96 407.238 248.48C406.598 248 406.038 247.36 405.558 246.56C405.078 245.76 404.798 244.76 404.718 243.56C404.558 242.12 404.638 240.6 404.958 239C405.358 237.32 406.478 236.04 408.318 235.16C409.038 234.76 409.918 234.52 410.958 234.44C412.078 234.36 413.038 234.36 413.838 234.44H419.478V212.6C419.478 211.56 419.478 210.52 419.478 209.48C419.478 208.36 419.598 207.28 419.838 206.24C419.998 205.84 420.118 205.48 420.198 205.16C420.358 204.84 420.518 204.48 420.678 204.08C421.558 202.64 422.798 201.64 424.398 201.08C424.798 200.92 425.198 200.84 425.598 200.84C426.078 200.76 426.518 200.72 426.918 200.72C429.558 200.72 431.558 201.92 432.918 204.32C433.238 204.8 433.438 205.48 433.518 206.36C433.678 207.24 433.798 208.16 433.878 209.12C433.958 210 433.998 210.8 433.998 211.52C433.998 212.16 433.998 212.56 433.998 212.72V268.88V281.36ZM453.078 291.56C452.598 292.6 451.838 293.48 450.798 294.2C449.198 295.24 447.438 295.52 445.518 295.04C444.318 294.8 443.358 294.28 442.638 293.48C441.918 292.76 441.358 291.92 440.958 290.96C440.638 290 440.438 288.96 440.358 287.84C440.278 286.72 440.238 285.64 440.238 284.6V213.92C440.238 213.04 440.238 212.04 440.238 210.92C440.238 209.72 440.318 208.6 440.478 207.56C440.638 206.44 440.838 205.4 441.078 204.44C441.398 203.48 441.838 202.72 442.398 202.16C443.278 201.36 444.118 200.88 444.918 200.72C445.718 200.48 446.678 200.36 447.798 200.36C449.158 200.36 450.278 200.76 451.158 201.56C452.038 202.28 452.718 203.28 453.198 204.56C453.918 206.24 454.318 207.96 454.398 209.72C454.478 211.48 454.558 213.28 454.638 215.12V215.72C454.798 221.8 454.838 227.64 454.758 233.24C454.678 238.84 454.638 244.48 454.638 250.16V280.16C454.638 282.24 454.558 284.24 454.398 286.16C454.318 288.08 453.878 289.88 453.078 291.56ZM390.678 268.52C390.598 268.6 390.198 269.12 389.478 270.08C388.838 270.96 388.118 271.96 387.318 273.08C386.598 274.12 385.878 275.08 385.158 275.96C384.518 276.84 384.158 277.32 384.078 277.4C383.438 278.28 382.798 279.16 382.158 280.04C381.598 280.84 380.998 281.64 380.358 282.44C380.198 282.6 380.038 282.8 379.878 283.04C379.798 283.28 379.678 283.48 379.518 283.64C378.398 285 377.238 286.32 376.038 287.6C374.838 288.88 373.438 289.84 371.838 290.48C371.198 290.8 370.478 290.96 369.678 290.96C368.878 290.96 368.198 290.76 367.638 290.36C367.158 289.96 366.598 289.44 365.958 288.8C364.678 287.36 364.038 285.68 364.038 283.76C364.118 282.32 364.438 280.96 364.998 279.68C365.638 278.4 366.278 277.2 366.918 276.08C367.078 275.92 367.518 275.24 368.238 274.04C369.038 272.84 369.958 271.36 370.998 269.6C372.038 267.84 373.118 265.96 374.238 263.96C375.438 261.88 376.558 259.96 377.598 258.2C378.718 256.36 379.678 254.76 380.478 253.4C381.278 252.04 381.838 251.2 382.158 250.88C382.638 250 382.998 249.16 383.238 248.36C383.558 247.56 383.758 246.72 383.838 245.84C383.998 244.56 384.078 243.32 384.078 242.12C384.078 240.84 384.078 239.48 384.078 238.04V216.8C384.078 216 384.078 215.24 384.078 214.52C384.078 213.8 384.118 213.04 384.198 212.24C384.198 211.36 384.278 210.48 384.438 209.6C384.598 208.72 384.758 207.92 384.918 207.2C385.078 206.72 385.278 206.2 385.518 205.64C385.838 205.08 386.118 204.56 386.358 204.08C386.758 203.44 387.278 202.96 387.918 202.64C388.638 202.32 389.398 202.08 390.198 201.92L390.438 201.8C391.078 201.64 391.598 201.6 391.998 201.68C392.398 201.68 392.918 201.8 393.558 202.04C394.198 202.28 394.758 202.64 395.238 203.12C395.558 203.44 395.838 203.88 396.078 204.44C396.318 205 396.558 205.6 396.798 206.24C397.118 207.04 397.358 207.96 397.518 209C397.758 209.96 397.918 211 397.998 212.12C398.318 215.48 398.518 219.28 398.598 223.52C398.678 227.68 398.718 231.44 398.718 234.8C398.798 236.88 398.838 238.96 398.838 241.04C398.838 243.04 398.918 245.04 399.078 247.04C399.158 248.8 399.558 250.44 400.278 251.96C401.078 253.48 401.878 255 402.678 256.52C403.478 258.28 404.318 260.08 405.198 261.92C406.078 263.76 406.958 265.52 407.838 267.2C407.918 267.44 408.198 268 408.678 268.88C409.158 269.76 409.638 270.72 410.118 271.76C410.678 272.72 411.158 273.64 411.558 274.52C412.038 275.32 412.318 275.84 412.398 276.08L412.638 277.04L412.998 277.76C413.478 278.64 413.838 279.56 414.078 280.52C414.318 281.4 414.478 282.36 414.558 283.4C414.638 284.44 414.398 285.52 413.838 286.64C412.718 289.12 411.118 290.44 409.038 290.6H408.918C407.638 290.6 406.518 290.12 405.558 289.16C404.598 288.2 403.558 287.04 402.438 285.68C401.318 284.4 400.238 282.92 399.198 281.24C398.158 279.56 397.238 278.16 396.438 277.04C394.598 274 393.198 271.88 392.238 270.68C391.278 269.4 390.758 268.68 390.678 268.52ZM545.247 275.36C545.487 275.44 545.727 275.48 545.967 275.48C546.207 275.4 546.447 275.36 546.687 275.36C548.047 275.52 549.287 275.8 550.407 276.2C551.607 276.52 552.767 277.2 553.887 278.24C555.007 279.2 555.567 280.56 555.567 282.32C555.567 283.2 555.407 284.16 555.087 285.2C554.847 286.16 554.487 286.92 554.007 287.48C553.367 288.12 552.567 288.6 551.607 288.92C550.727 289.24 549.807 289.48 548.847 289.64C547.967 289.72 547.167 289.76 546.447 289.76C545.807 289.76 545.447 289.76 545.367 289.76H479.487C479.087 289.76 478.487 289.8 477.687 289.88C476.887 289.88 476.287 289.88 475.887 289.88C474.127 289.96 472.287 289.96 470.367 289.88C468.447 289.72 466.807 289.08 465.447 287.96C463.767 286.44 462.927 284.72 462.927 282.8C462.927 281.6 463.287 280.36 464.007 279.08C464.727 277.8 465.687 276.92 466.887 276.44C468.487 275.8 470.127 275.48 471.807 275.48C473.567 275.48 475.327 275.44 477.087 275.36H477.687C478.887 275.36 480.287 275.36 481.887 275.36C483.567 275.28 485.047 275.24 486.327 275.24C486.247 274.92 486.207 274.52 486.207 274.04V273.56V262.4C486.207 261.68 486.327 260.96 486.567 260.24C486.727 259.6 487.007 258.96 487.407 258.32C487.807 257.6 488.367 256.92 489.087 256.28C486.127 255.56 483.327 254.44 480.687 252.92C478.127 251.4 475.887 249.24 473.967 246.44C472.127 243.96 470.887 241.32 470.247 238.52C469.687 235.72 469.407 232.8 469.407 229.76C469.407 223.52 471.047 218.32 474.327 214.16C477.687 209.92 482.247 206.88 488.007 205.04C491.847 203.76 495.727 202.96 499.647 202.64C503.647 202.24 507.647 202.2 511.647 202.52C514.927 202.76 518.207 203.08 521.487 203.48C524.767 203.88 527.927 204.76 530.967 206.12C532.327 206.76 533.647 207.52 534.927 208.4C536.207 209.28 537.407 210.32 538.527 211.52C541.327 214.56 543.247 217.84 544.287 221.36C545.327 224.88 545.687 228.64 545.367 232.64C544.887 238.88 543.047 243.88 539.847 247.64C536.647 251.32 532.647 254 527.847 255.68C528.727 256.16 529.447 256.8 530.007 257.6C530.567 258.4 530.887 259.36 530.967 260.48C531.047 261.76 531.087 263.76 531.087 266.48C531.167 269.12 531.207 272.08 531.207 275.36H536.007C537.447 275.44 539.007 275.44 540.687 275.36C542.447 275.2 543.967 275.2 545.247 275.36ZM529.647 234.44C529.887 233.4 529.967 232.4 529.887 231.44C529.727 227.28 528.407 224.2 525.927 222.2C523.527 220.12 520.407 218.84 516.567 218.36C514.327 218.12 511.567 217.88 508.287 217.64C505.007 217.32 501.767 217.4 498.567 217.88C495.447 218.36 492.687 219.36 490.287 220.88C487.887 222.32 486.447 224.64 485.967 227.84C485.727 229.76 485.727 231.6 485.967 233.36C486.287 235.12 486.967 236.68 488.007 238.04C489.047 239.4 490.487 240.56 492.327 241.52C494.167 242.48 496.527 243.08 499.407 243.32C502.207 243.64 505.047 243.92 507.927 244.16C510.887 244.4 513.767 244.24 516.567 243.68C517.927 243.44 519.287 243.12 520.647 242.72C522.087 242.24 523.407 241.64 524.607 240.92C525.807 240.2 526.847 239.32 527.727 238.28C528.607 237.16 529.247 235.88 529.647 234.44ZM513.447 257.84C511.367 257.84 509.167 257.88 506.847 257.96C504.607 257.96 502.327 257.88 500.007 257.72C500.567 258.68 500.887 259.6 500.967 260.48C501.047 261.76 501.087 263.76 501.087 266.48C501.167 269.12 501.207 272.08 501.207 275.36H513.927H516.327C516.247 275.04 516.207 274.6 516.207 274.04V273.56V262.4C516.207 261.92 516.287 261.4 516.447 260.84C516.607 260.44 516.767 259.96 516.927 259.4C517.087 258.84 517.367 258.28 517.767 257.72C517.047 257.8 516.327 257.84 515.607 257.84C514.887 257.84 514.167 257.84 513.447 257.84Z" fill="black" fill-opacity="0.3"/>
<g opacity="0.3">
<path d="M648.775 71.275H644.825L643.425 69.925C648.325 64.225 651.275 56.825 651.275 48.775C651.275 30.825 636.725 16.275 618.775 16.275C600.825 16.275 586.275 30.825 586.275 48.775C586.275 66.725 600.825 81.275 618.775 81.275C626.825 81.275 634.225 78.325 639.925 73.425L641.275 74.825V78.775L666.275 103.725L673.725 96.275L648.775 71.275ZM618.775 71.275C606.325 71.275 596.275 61.225 596.275 48.775C596.275 36.325 606.325 26.275 618.775 26.275C631.225 26.275 641.275 36.325 641.275 48.775C641.275 61.225 631.225 71.275 618.775 71.275Z" fill="black"/>
</g>
</svg>
